<?xml version="1.0" encoding="UTF-8"?>
<svg xmlns="http://www.w3.org/2000/svg" version="1.1" xmlns:xlink="http://www.w3.org/1999/xlink" viewBox="0 0 473.8 449.4">
  <defs>
    <style>
      .cls-1 {
        fill: #0c89cb;
      }

      .cls-2 {
        fill: #fff;
      }

      .cls-3 {
        fill: none;
      }

      .cls-4 {
        clip-path: url(#clippath);
      }
    </style>
    <clipPath id="clippath">
      <rect class="cls-3" x="-.3" y="-.3" width="474.4" height="450"/>
    </clipPath>
  </defs>
  <!-- Generator: Adobe Illustrator 28.7.3, SVG Export Plug-In . SVG Version: 1.2.0 Build 164)  -->
  <g>
    <g id="Ebene_2">
      <g>
        <g class="cls-4">
          <path class="cls-1" d="M8.9,440.6h456V8.8H8.9v431.8ZM474.1,449.7H-.3V-.3h474.3v450h.1Z"/>
        </g>
        <rect class="cls-2" x="8.9" y="8.8" width="456" height="431.8"/>
        <path class="cls-1" d="M153.5,85.6c0,4.1-3.4,7.5-7.5,7.5s-7.5-3.4-7.5-7.5,3.4-7.5,7.5-7.5c4.1,0,7.5,3.4,7.5,7.5"/>
        <polygon class="cls-1" points="134 70.6 118.9 70.6 100.9 138.3 152.1 138.3 156.1 123.3 120.1 123.3 134 70.6 134 70.6"/>
        <path class="cls-1" d="M126.4,153.4c-24.9,0-45.1-20.2-45.1-45.1s20.2-45.1,45.1-45.1,45.1,20.2,45.1,45.1h0c0,24.9-20.2,45.1-45.1,45.1ZM126.4,48c-33.3,0-60.3,27-60.3,60.3s27,60.3,60.3,60.3,60.3-27,60.3-60.3h0c0-33.3-27-60.3-60.3-60.3h0Z"/>
        <path class="cls-1" d="M220.2,106.3c1,0,2-.2,2.8-.8.7-.6,1.1-1.6,1-2.5,0-2.2-1.4-3.3-4.2-3.3h-3.1v6.6h3.5ZM221.4,96.1c2,0,3.9.6,5.4,1.9,1.4,1.3,2.1,3,2.1,4.9.1,1.9-.7,3.7-2.1,4.9-1.5,1.3-3.5,2-5.5,1.9h-4.4v9.9h-4.6v-23.6h9.1Z"/>
        <path class="cls-1" d="M242.6,103.6c.6,0,1.1.1,1.6.4.7.3,1.3.7,1.9,1.2l-1.5,3.6c-.8-.7-1.8-1.2-2.9-1.3-.7,0-1.4.3-1.9.7-.6.5-1.1,1.2-1.5,1.9-.4.7-.6,1.6-.6,2.4v7.2h-4.1v-15.8h4.1v4h.1c.5-1.2,1.3-2.4,2.3-3.3.7-.6,1.6-.9,2.5-1h0Z"/>
        <path class="cls-1" d="M252.6,111.8c-.1,1.4.3,2.7,1.2,3.8.8.9,1.9,1.4,3.1,1.4,1.2,0,2.4-.4,3.2-1.3.8-1.1,1.3-2.5,1.2-3.9.1-1.3-.3-2.7-1.2-3.7-.8-.9-2-1.4-3.2-1.3-1.2,0-2.3.5-3.1,1.4-.8,1-1.2,2.3-1.2,3.6h0ZM256.9,103.6c1.6,0,3.1.3,4.5,1,1.3.6,2.4,1.6,3.1,2.9.7,1.3,1.1,2.7,1.1,4.2,0,1.5-.3,3-1.1,4.3-.7,1.3-1.8,2.3-3.1,2.9-1.4.7-2.9,1.1-4.5,1.1-1.6,0-3.1-.3-4.5-1.1-1.3-.6-2.4-1.6-3.1-2.9-.7-1.3-1.1-2.8-1.1-4.3,0-1.5.4-2.9,1.1-4.2.7-1.2,1.8-2.2,3.1-2.9,1.4-.6,3-1,4.5-1Z"/>
        <path class="cls-1" d="M277.3,95.8c.5,0,1,0,1.5,0,.4,0,.8.2,1.2.4v3.4c-.6-.2-1.3-.2-1.9-.2-.8,0-1.6.2-2.2.8-.6.7-.8,1.7-.7,2.6v1.1h2.7v3.1h-2.7v12.6h-4.1v-12.6h-2.2v-3.1h2.2v-1.2c0-1.9.5-3.7,1.7-5.1,1.1-1.3,2.8-2,4.5-1.9h0Z"/>
        <path class="cls-1" d="M292.5,110.1c0-1-.4-1.9-1-2.7-.6-.7-1.5-1-2.4-1-.9,0-1.8.3-2.5.9-.7.7-1.1,1.7-1.2,2.7h7.1ZM288.9,103.6c2.1-.1,4.1.7,5.5,2.2,1.5,1.7,2.2,4,2,6.2v.6h-11.1c.1,1.2.7,2.4,1.6,3.2,1,.8,2.3,1.2,3.6,1.1,1,0,2-.2,2.9-.5,1-.4,2-.9,2.8-1.6v3.1c-2,1.3-4.3,2-6.7,2-2.2,0-4.4-.7-6.1-2.2-1.6-1.6-2.5-3.7-2.4-6-.3-4.2,2.8-7.8,7-8.1.3,0,.6,0,.9,0h0Z"/>
        <path class="cls-1" d="M306.5,103.6c1.7,0,3.3.4,4.8,1.2v3.3c-.8-.5-1.6-.9-2.5-1.2-.8-.3-1.6-.4-2.4-.5-.5,0-1,0-1.4.3-.3.2-.5.6-.5,1,0,.3.2.5.4.7.7.5,1.5.9,2.3,1.3,1.4.6,2.7,1.5,3.8,2.5.7.8,1.1,1.8,1.1,2.8,0,1.4-.5,2.7-1.6,3.6-1.2.9-2.8,1.4-4.3,1.3-1,0-2.1-.1-3.1-.4-.8-.2-1.6-.5-2.4-.9v-3.5c1.5,1,3.3,1.6,5.1,1.7.6,0,1.2-.1,1.7-.4.4-.2.6-.6.7-1,0-.2,0-.5-.2-.7-.2-.2-.4-.5-.7-.6s-1.3-.7-3-1.5c-1.1-.5-2-1.1-2.8-2-.6-.7-.9-1.6-.9-2.5,0-1.3.6-2.5,1.6-3.3,1.3-.8,2.8-1.2,4.3-1.2Z"/>
        <path class="cls-1" d="M322.1,103.6c1.7,0,3.3.4,4.8,1.2v3.3c-.8-.5-1.6-.9-2.5-1.2-.8-.3-1.6-.4-2.4-.5-.5,0-1,0-1.4.3-.3.2-.5.6-.5,1,0,.3.2.5.4.7.7.5,1.5.9,2.3,1.3,1.4.6,2.7,1.5,3.8,2.5.7.8,1.1,1.8,1.1,2.8,0,1.4-.5,2.7-1.6,3.6-1.2.9-2.8,1.4-4.3,1.3-1,0-2.1-.1-3.1-.4-.8-.2-1.6-.5-2.4-.9v-3.5c1.5,1,3.3,1.6,5.1,1.7.6,0,1.2-.1,1.7-.4.4-.2.6-.6.7-1,0-.2,0-.5-.2-.7-.2-.2-.4-.5-.7-.6s-1.3-.7-3-1.5c-1.1-.5-2-1.1-2.8-2-.6-.7-.9-1.6-.9-2.5,0-1.3.6-2.5,1.6-3.3,1.3-.8,2.8-1.2,4.3-1.2Z"/>
        <path class="cls-1" d="M337,103.9v15.8h-4.1v-15.8h4.1ZM334.9,96.7c1.3,0,2.3,1,2.3,2.3,0,.6-.2,1.2-.7,1.6-.8.9-2.3,1-3.2.1,0,0,0,0,0,0h-.1c-.9-1-.9-2.4,0-3.3,0,0,0,0,0,0,.5-.4,1.1-.6,1.7-.6h0Z"/>
        <path class="cls-1" d="M346.5,111.8c-.1,1.4.3,2.7,1.2,3.8.8.9,1.9,1.4,3.1,1.4,1.2,0,2.4-.4,3.2-1.3.8-1.1,1.3-2.5,1.2-3.9.1-1.3-.3-2.7-1.2-3.7-.8-.9-2-1.4-3.2-1.3-1.2,0-2.3.5-3.1,1.4-.8,1-1.2,2.3-1.2,3.6ZM350.8,103.6c1.6,0,3.1.3,4.5,1,1.3.6,2.4,1.6,3.1,2.9.7,1.3,1.1,2.7,1.1,4.2,0,1.5-.3,3-1.1,4.3-.7,1.3-1.8,2.3-3.1,2.9-1.4.7-2.9,1.1-4.5,1.1-1.6,0-3.1-.3-4.5-1.1-1.3-.6-2.4-1.6-3.1-2.9-.7-1.3-1.1-2.8-1.1-4.3,0-1.5.4-2.9,1.1-4.2.7-1.2,1.8-2.2,3.1-2.9,1.4-.6,3-1,4.5-1Z"/>
        <path class="cls-1" d="M373.7,103.6c1.5-.1,3,.5,4,1.7,1,1.2,1.6,2.8,1.5,4.4v10h-4.1v-9.6c0-.9-.2-1.7-.7-2.4-.5-.6-1.2-.9-2-.9-.6,0-1.3.2-1.8.6-.7.6-1.3,1.2-1.9,1.9v10.4h-4.1v-15.8h4.1v2.2c.6-.8,1.4-1.5,2.4-1.9.8-.4,1.7-.6,2.6-.6Z"/>
        <path class="cls-1" d="M388.1,115.5c0,1,.6,1.8,1.6,1.9.1,0,.2,0,.3,0,1,0,2-.5,2.7-1.2v-4.1c-.9.3-1.8.7-2.7,1.1-.5.3-1,.7-1.5,1.1-.3.3-.5.8-.4,1.2ZM390.6,103.6c1.6-.1,3.3.3,4.6,1.3,1.1.9,1.7,2.2,1.6,3.6v7.7c0,.6.2.9.7.9.3,0,.6-.1.9-.3l.9-.6v2.4c-1.2.8-2.6,1.3-4,1.3-.6,0-1.2-.1-1.7-.4-.4-.3-.7-.8-.8-1.3-1.4,1.1-3.1,1.7-4.8,1.7-1.1,0-2.1-.4-2.9-1.1-.8-.7-1.2-1.7-1.2-2.7,0-1.2.4-2.4,1.2-3.2,1.3-1,2.7-1.7,4.3-2.1l3.4-1v-.7c0-1.5-.9-2.3-2.8-2.3-1,0-2,.2-2.9.7-1,.5-1.9,1.1-2.6,1.9v-3.7c1.7-1.4,3.9-2.1,6.1-2.1h0Z"/>
        <polygon class="cls-1" points="407.6 96.1 407.6 119.7 403.5 119.7 403.5 96.1 407.6 96.1 407.6 96.1"/>
        <polygon class="cls-1" points="216.9 133 216.9 156.6 212.3 156.6 212.3 133 216.9 133 216.9 133"/>
        <path class="cls-1" d="M232.5,140.5c1.5-.1,3,.5,4,1.7,1,1.2,1.6,2.8,1.5,4.4v10h-4.1v-9.6c0-.9-.2-1.7-.7-2.4-.5-.6-1.2-.9-2-.9-.6,0-1.3.2-1.8.6-.7.6-1.3,1.2-1.9,1.9v10.5h-4.1v-15.8h4.1v2.2c.6-.8,1.4-1.5,2.4-1.9.8-.5,1.7-.7,2.6-.7h0Z"/>
        <path class="cls-1" d="M248.9,140.5c1.7,0,3.3.4,4.8,1.2v3.3c-.8-.5-1.6-.9-2.5-1.2-.8-.3-1.6-.4-2.4-.5-.5,0-1,0-1.4.3-.3.2-.5.6-.5,1,0,.3.2.5.4.7.7.5,1.5.9,2.3,1.3,1.4.6,2.7,1.5,3.8,2.5.7.8,1.1,1.8,1.1,2.8,0,1.4-.5,2.7-1.6,3.6-1.2.9-2.8,1.4-4.3,1.3-1,0-2.1-.1-3.1-.4-.8-.2-1.6-.5-2.4-.9v-3.5c1.5,1,3.3,1.6,5.1,1.7.6,0,1.2-.1,1.7-.4.4-.2.6-.6.7-1,0-.2,0-.5-.2-.7-.2-.2-.4-.5-.7-.6s-1.3-.7-3-1.5c-1.1-.5-2-1.1-2.8-2-.6-.7-.9-1.6-.9-2.5,0-1.3.6-2.5,1.6-3.3,1.3-.9,2.8-1.3,4.3-1.2h0Z"/>
        <path class="cls-1" d="M263.8,136.6h.3v4.2h5.4v3.1h-5.4v7.3c0,.6.2,1.2.6,1.7.5.5,1.1.7,1.8.7,1.2,0,2.3-.4,3.3-1v3.3c-1.3.6-2.7,1-4.2,1-1.5.1-3.1-.4-4.2-1.5-1-1-1.6-2.4-1.5-3.9v-7.5h-2.5v-.7l6.4-6.7h0Z"/>
        <path class="cls-1" d="M278.3,140.8v15.8h-4.1v-15.8h4.1ZM276.2,133.5c1.3,0,2.3,1,2.3,2.3,0,.6-.2,1.2-.7,1.6-.8.9-2.3,1-3.2.1,0,0,0,0,0,0h-.1c-.9-1-.9-2.4,0-3.3,0,0,0,0,0,0,.5-.4,1.1-.6,1.7-.6h0Z"/>
        <path class="cls-1" d="M288.6,136.6h.3v4.2h5.4v3.1h-5.4v7.3c0,.6.2,1.2.6,1.7.5.5,1.1.7,1.8.7,1.2,0,2.3-.4,3.3-1v3.3c-1.3.6-2.7,1-4.2,1-1.5.1-3.1-.4-4.2-1.5-1-1-1.6-2.4-1.5-3.9v-7.5h-2.5v-.7l6.4-6.7h0Z"/>
        <path class="cls-1" d="M302.8,140.8v9.7c0,.8.2,1.7.8,2.3.5.5,1.3.8,2,.8.7,0,1.4-.2,2-.6.7-.5,1.2-1.1,1.6-1.8v-10.4h4.1v15.8h-4.1v-2.1c-1.2,1.5-3,2.4-4.9,2.4-1.6,0-3.1-.5-4.1-1.7-1.1-1.2-1.6-2.7-1.6-4.3v-10.1h4.2Z"/>
        <path class="cls-1" d="M323.5,136.6h.3v4.2h5.4v3.1h-5.4v7.3c0,.6.2,1.2.6,1.7.5.5,1.1.7,1.8.7,1.2,0,2.3-.4,3.3-1v3.3c-1.3.6-2.7,1-4.2,1-1.5.1-3.1-.4-4.2-1.5-1-1-1.6-2.4-1.5-3.9v-7.5h-2.5v-.7l6.4-6.7h0Z"/>
        <path class="cls-1" d="M344.3,147c0-1-.4-1.9-1-2.7-.6-.7-1.5-1-2.4-1-.9,0-1.8.3-2.5.9-.7.7-1.1,1.7-1.2,2.7h7.1ZM340.7,140.5c2.1-.1,4.1.7,5.5,2.2,1.5,1.7,2.2,4,2,6.2v.6h-11.1c.1,1.2.7,2.4,1.6,3.2,1,.8,2.3,1.2,3.6,1.1,1,0,2-.2,2.9-.5,1-.4,2-.9,2.8-1.6v3.1c-2,1.3-4.3,2-6.7,2-2.2,0-4.4-.7-6.1-2.2-1.6-1.6-2.5-3.7-2.4-6,0-2.2.7-4.3,2.2-5.9,1.5-1.5,3.6-2.3,5.7-2.2h0Z"/>
        <polygon class="cls-1" points="216.8 59.1 216.8 79.1 228.2 79.1 228.2 82.7 212.2 82.7 212.2 59.1 216.8 59.1 216.8 59.1"/>
        <path class="cls-1" d="M236.9,67v15.7h-4.1v-15.7h4.1ZM234.8,59.7c1.3,0,2.3,1,2.3,2.3,0,.6-.2,1.2-.7,1.6-.8.9-2.3,1-3.2.1,0,0,0,0,0,0h-.1c-.9-1-.9-2.4,0-3.3,0,0,0,0,0,0,.5-.4,1.1-.6,1.7-.6Z"/>
        <path class="cls-1" d="M252,66.6c1.5-.1,3,.5,4,1.7,1,1.2,1.6,2.8,1.5,4.4v10h-4.1v-9.6c0-.9-.2-1.7-.7-2.4-.5-.6-1.2-.9-2-.9-.6,0-1.3.2-1.8.6-.7.6-1.3,1.2-1.9,1.9v10.4h-4.1v-15.7h4.1v2.2c.6-.8,1.4-1.5,2.4-1.9.8-.5,1.7-.7,2.6-.7h0Z"/>
        <path class="cls-1" d="M267.3,67v9.7c0,.8.2,1.7.8,2.3.5.5,1.3.8,2,.8.7,0,1.4-.2,2-.6.7-.5,1.2-1.1,1.6-1.8v-10.4h4.1v15.7h-4.1v-2.1c-1.2,1.5-3,2.4-4.9,2.4-1.6,0-3.1-.5-4.1-1.7-1.1-1.2-1.6-2.7-1.6-4.3v-10h4.2Z"/>
        <polygon class="cls-1" points="286.6 67 290.5 71.9 294.3 67 299.3 67 293 74.7 299.8 82.7 294.8 82.7 290.5 77.5 286.4 82.7 281.6 82.7 288.1 74.7 281.6 67 286.6 67 286.6 67"/>
        <polygon class="cls-1" points="131.6 268.4 131.6 309.4 155.1 309.4 155.1 316.6 122.3 316.6 122.3 268.3 131.6 268.3 131.6 268.4 131.6 268.4"/>
        <polygon class="cls-1" points="173.9 268.4 173.9 316.7 164.5 316.7 164.5 268.4 173.9 268.4 173.9 268.4 173.9 268.4"/>
        <polygon class="cls-1" points="195.8 268.4 224.5 302.1 224.5 268.4 233.6 268.4 233.6 316.7 225.6 316.7 196.7 282.4 196.7 316.7 187.6 316.7 187.6 268.4 195.8 268.4 195.8 268.4 195.8 268.4"/>
        <path class="cls-1" d="M256,268.4v28.1c-.1,2.4.3,4.7,1.3,6.9.9,1.8,2.4,3.3,4.2,4.2,2.1,1.1,4.5,1.7,6.9,1.6,2.5,0,5-.5,7.3-1.6,1.9-.9,3.4-2.4,4.4-4.3,1-2.4,1.5-5,1.4-7.5v-27.5h9.4v28.7c0,6.5-2,11.5-5.8,15s-9.4,5.2-16.5,5.2c-4,0-8-.7-11.6-2.4-3.2-1.5-5.8-3.9-7.5-6.9-1.8-3.2-2.7-6.9-2.6-10.6v-29h9.4Z"/>
        <polygon class="cls-1" points="312.2 268.4 325.5 284.7 338.6 268.4 350.2 268.4 331.3 291.7 352 316.6 340.2 316.6 325.5 298.6 310.8 316.6 299.1 316.6 319.6 291.7 300.5 268.4 312.2 268.4 312.2 268.4"/>
        <polygon class="cls-1" points="92.2 353.6 92.2 359.4 74.7 359.4 74.7 369.6 91.5 369.6 91.5 375.4 74.7 375.4 74.7 386.4 92.6 386.4 92.6 392.2 67.2 392.2 67.2 353.6 92.2 353.6 92.2 353.6 92.2 353.6"/>
        <path class="cls-1" d="M113,353.1c3.8,0,7.6,1,10.9,2.8v6.6c-4-2.4-7.6-3.6-10.7-3.6-1.5,0-3.1.3-4.4,1.1-1,.6-1.6,1.7-1.6,2.9,0,1.5,1,2.8,3,4,.6.4,2.7,1.4,6.4,3.1,2.7,1.1,5,2.8,6.9,5,1.4,1.9,2.2,4.2,2.1,6.6.1,3.1-1.2,6.1-3.6,8-2.6,2.1-5.9,3.2-9.3,3.1-2.2,0-4.3-.2-6.4-.8-2.1-.7-4.1-1.6-6-2.8v-7.4c4.1,3.4,8,5.1,11.7,5.1,1.6.1,3.1-.3,4.4-1.2,1.1-.7,1.7-1.9,1.7-3.2,0-1.8-1-3.2-2.9-4.4-1.6-.9-3.7-1.9-6.3-3.2-2.6-1.1-4.9-2.7-6.8-4.8-1.5-1.8-2.3-4.1-2.3-6.4-.1-3,1.2-5.9,3.6-7.8,2.8-1.9,6.2-2.8,9.6-2.7h0Z"/>
        <path class="cls-1" d="M145.5,353.1c3.8,0,7.6,1,10.9,2.8v6.6c-4-2.4-7.6-3.6-10.7-3.6-1.5,0-3.1.3-4.4,1.1-1,.6-1.6,1.7-1.6,2.9,0,1.5,1,2.8,3,4,.6.4,2.7,1.4,6.4,3.1,2.7,1.1,5,2.8,6.9,5,1.4,1.9,2.2,4.2,2.1,6.6.1,3.1-1.2,6.1-3.6,8-2.6,2.1-5.9,3.2-9.3,3.1-2.2,0-4.3-.2-6.4-.8-2.1-.7-4.1-1.6-6-2.8v-7.4c4.1,3.4,8,5.1,11.7,5.1,1.6.1,3.1-.3,4.4-1.2,1.1-.7,1.7-1.9,1.7-3.2,0-1.8-1-3.2-2.9-4.4-1.6-.9-3.7-1.9-6.3-3.2-2.6-1.1-4.9-2.7-6.8-4.8-1.5-1.8-2.3-4.1-2.3-6.4-.1-3,1.2-5.9,3.6-7.8,2.9-1.9,6.2-2.8,9.6-2.7h0Z"/>
        <polygon class="cls-1" points="191.8 353.6 191.8 359.4 174.3 359.4 174.3 369.6 191.1 369.6 191.1 375.4 174.3 375.4 174.3 386.4 192.2 386.4 192.2 392.2 166.9 392.2 166.9 353.6 191.8 353.6 191.8 353.6 191.8 353.6"/>
        <polygon class="cls-1" points="208 353.6 231 380.6 231 353.6 238.3 353.6 238.3 392.2 231.9 392.2 208.8 364.8 208.8 392.2 201.5 392.2 201.5 353.6 208 353.6 208 353.6"/>
        <polygon class="cls-1" points="281.1 353.6 281.1 359.4 267.4 359.4 267.4 392.2 259.9 392.2 259.9 359.4 246.2 359.4 246.2 353.6 281.1 353.6 281.1 353.6"/>
        <polygon class="cls-1" points="296.7 353.6 296.7 392.2 289.2 392.2 289.2 353.6 296.7 353.6 296.7 353.6"/>
        <path class="cls-1" d="M317.5,377.2h12.5l-6.5-15.3-6,15.3ZM327.2,353.6l17.1,38.6h-7.9l-4-9.4h-17.2l-3.7,9.4h-7.8l15.9-38.6h7.6Z"/>
        <polygon class="cls-1" points="358.6 353.6 358.6 386.4 377.4 386.4 377.4 392.2 351.2 392.2 351.2 353.6 358.6 353.6 358.6 353.6 358.6 353.6"/>
        <path class="cls-1" d="M395.9,353.1c3.8,0,7.6,1,10.9,2.8v6.6c-4-2.4-7.6-3.6-10.7-3.6-1.5,0-3.1.3-4.4,1.1-1,.6-1.6,1.7-1.6,2.9,0,1.5,1,2.8,3,4,.6.4,2.7,1.4,6.4,3.1,2.7,1.1,5,2.8,6.9,5,1.4,1.9,2.2,4.2,2.1,6.6.1,3.1-1.2,6.1-3.6,8-2.6,2.1-5.9,3.2-9.3,3.1-2.2,0-4.3-.2-6.4-.8-2.1-.7-4.1-1.6-6-2.8v-7.4c4.1,3.4,8,5.1,11.7,5.1,1.6.1,3.1-.3,4.4-1.2,1.1-.7,1.7-1.9,1.7-3.2,0-1.8-1-3.2-2.9-4.4-1.6-.9-3.7-1.9-6.3-3.2-2.6-1.1-4.9-2.7-6.8-4.8-1.5-1.8-2.3-4.1-2.3-6.4-.1-3,1.2-5.9,3.6-7.8,2.8-1.9,6.2-2.8,9.6-2.7h0Z"/>
        <polygon class="cls-1" points="92.5 201.8 381.3 201.8 381.3 204.8 92.5 204.8 92.5 201.8 92.5 201.8"/>
      </g>
    </g>
  </g>
</svg>